<svg width="260" height="222" viewBox="0 0 260 222" fill="none" xmlns="http://www.w3.org/2000/svg">
<g clip-path="url(#clip0_1006_93923)">
<mask id="mask0_1006_93923" style="mask-type:luminance" maskUnits="userSpaceOnUse" x="-1" y="-1" width="262" height="224">
<path d="M260.343 -0.25H-0.34375V222.25H260.343V-0.25Z" fill="white"/>
</mask>
<g mask="url(#mask0_1006_93923)">
<path d="M137.609 60.8301L137.577 91.9439C137.683 134.405 103.022 169.058 60.6857 169.01C43.869 168.984 28.5619 163.869 16.1562 154.919C38.4102 194.92 81.093 221.934 129.624 221.961C200.128 221.897 258.407 164.508 259.52 93.9693L259.504 93.675C259.569 92.0498 259.506 61.9731 259.585 60.6417C259.496 27.1747 232.129 -0.327244 198.65 -0.238249C165.016 -0.288802 137.504 27.0688 137.609 60.8301Z" fill="url(#paint0_linear_1006_93923)"/>
<path d="M60.6177 31.0637C27.0032 31.0637 -0.34375 58.4024 -0.34375 92.0061C-0.34375 125.607 27.0032 152.946 60.6177 152.946C94.2335 152.946 121.581 125.607 121.581 92.0061C121.581 58.4024 94.2335 31.0637 60.6177 31.0637Z" fill="#0B23A9"/>
</g>
</g>
<defs>
<linearGradient id="paint0_linear_1006_93923" x1="73.2073" y1="219.868" x2="212.751" y2="65.2322" gradientUnits="userSpaceOnUse">
<stop stop-color="#09DBF0"/>
<stop offset="1" stop-color="#0B23A9"/>
</linearGradient>
<clipPath id="clip0_1006_93923">
<rect width="260" height="222" fill="white"/>
</clipPath>
</defs>
</svg>
